<?xml version="1.0" standalone="no"?>
<!DOCTYPE svg PUBLIC "-//W3C//DTD SVG 20010904//EN"
 "http://www.w3.org/TR/2001/REC-SVG-20010904/DTD/svg10.dtd">
<svg version="1.0" xmlns="http://www.w3.org/2000/svg"
 width="200.000000pt" height="200.000000pt" viewBox="0 0 200.000000 200.000000"
 preserveAspectRatio="xMidYMid meet">
<metadata>
Created by potrace 1.11, written by Peter Selinger 2001-2013
</metadata>
<g transform="translate(0.000000,200.000000) scale(0.100000,-0.100000)"
fill="#000000" stroke="none">
<path d="M1160 1664 c-223 -129 -440 -255 -482 -280 -112 -65 -109 -70 67
-129 80 -27 149 -54 154 -59 4 -6 20 -47 35 -91 63 -190 78 -225 95 -225 10 0
49 44 94 104 l78 105 82 -36 c111 -48 146 -58 156 -47 5 5 25 101 45 214 20
113 38 214 40 225 5 28 14 84 21 125 8 48 24 140 30 170 3 14 8 41 11 60 3 19
8 43 10 53 5 17 -11 48 -25 46 -3 0 -188 -106 -411 -235z m5 -164 l-250 -250
-112 38 c-62 20 -113 39 -113 42 1 4 422 250 624 364 28 16 60 35 71 42 11 8
22 14 25 14 3 0 -108 -112 -245 -250z m361 242 c-2 -4 -23 -116 -46 -247 -22
-132 -45 -258 -50 -280 -5 -22 -12 -62 -15 -90 -4 -27 -10 -53 -13 -57 -5 -5
-274 103 -289 116 -1 1 49 74 113 162 63 87 123 170 132 185 62 92 157 219
164 219 5 0 7 -4 4 -8z m-209 -179 c-223 -308 -271 -381 -279 -423 -5 -25 -10
-54 -13 -65 -2 -11 -4 -27 -5 -35 0 -13 -2 -12 -10 1 -5 9 -11 25 -13 35 -2
11 -7 26 -10 34 -4 8 -13 35 -21 60 l-16 45 198 198 c108 108 198 197 200 197
2 0 -12 -21 -31 -47z m-174 -467 c-19 -31 -77 -106 -79 -103 -2 2 1 19 5 38 5
19 12 50 15 71 l7 36 29 -15 c20 -9 27 -19 23 -27z"/>
<path d="M355 870 c-9 -15 2 -28 47 -56 31 -20 42 -23 54 -13 22 18 17 27 -26
54 -42 27 -65 31 -75 15z"/>
<path d="M813 846 c-24 -11 -36 -32 -27 -47 17 -27 93 14 81 44 -7 19 -21 20
-54 3z"/>
<path d="M534 785 c-9 -23 5 -32 58 -37 55 -6 72 2 64 28 -8 26 -113 33 -122
9z"/>
<path d="M664 650 c-32 -13 -63 -57 -80 -117 -14 -48 -18 -53 -45 -53 -44 0
-44 0 -44 69 0 54 -4 66 -24 82 -26 22 -60 17 -104 -13 -35 -25 -48 -50 -36
-69 8 -12 12 -11 27 7 50 60 88 46 77 -28 -7 -48 -11 -55 -40 -60 -30 -5 -31
-36 -2 -43 25 -7 25 -7 12 -57 -16 -59 -11 -80 19 -76 17 2 24 15 36 65 9 34
18 64 20 66 3 2 23 7 46 10 l40 7 3 -42 c4 -71 33 -107 88 -108 37 0 93 42 93
71 0 24 -6 24 -37 -1 -47 -37 -77 -23 -86 41 -5 43 -3 47 42 78 55 39 80 131
45 165 -17 18 -20 18 -50 6z m29 -42 c9 -28 -32 -108 -55 -108 -10 0 -1 43 19
88 16 34 28 41 36 20z"/>
<path d="M1572 568 c-18 -18 -15 -36 9 -49 18 -9 25 -8 41 9 18 18 18 20 3 36
-19 19 -37 20 -53 4z"/>
<path d="M820 475 c-31 -17 -49 -52 -50 -98 0 -72 71 -109 146 -75 22 10 28
10 32 0 2 -6 12 -12 21 -12 13 0 25 17 40 60 28 75 46 90 38 30 -10 -79 24
-112 84 -79 15 7 24 7 35 -2 8 -6 27 -9 44 -6 l29 6 -40 -36 c-92 -83 -94
-181 -3 -159 28 7 67 80 79 147 5 25 15 41 37 54 29 17 32 17 43 1 16 -21 43
-21 67 1 10 9 18 11 18 5 0 -6 -17 -25 -38 -44 -70 -60 -97 -122 -67 -152 24
-23 61 -20 83 9 20 25 32 52 54 123 16 54 63 89 79 60 22 -39 108 -5 124 50 8
28 -15 30 -40 2 -33 -36 -47 -26 -40 28 3 26 8 57 11 68 4 14 0 23 -12 28 -24
9 -34 -4 -47 -64 -8 -36 -20 -58 -36 -68 l-23 -16 6 50 c4 27 9 57 12 66 7 25
-3 37 -25 31 -11 -3 -23 -21 -31 -46 -25 -89 -69 -114 -49 -28 14 58 11 80 -8
77 -21 -3 -43 -41 -43 -74 0 -21 -48 -78 -57 -68 -2 2 1 23 6 47 15 65 14 79
-8 79 -11 0 -22 4 -26 9 -8 13 -64 -5 -85 -27 -10 -10 -23 -36 -31 -58 -14
-43 -39 -70 -49 -54 -3 5 -2 37 4 71 8 47 7 62 -3 68 -20 13 -49 1 -75 -30
-30 -35 -38 -37 -27 -6 11 30 4 46 -19 40 -22 -6 -37 -43 -39 -98 -2 -36 -89
-73 -106 -45 -4 6 8 16 25 22 40 13 63 60 47 95 -5 13 -15 23 -21 24 -6 0 -18
2 -27 4 -8 1 -26 -3 -39 -10z m435 -48 c-2 -7 -7 -25 -9 -41 -7 -39 -33 -67
-45 -47 -5 7 -7 21 -6 30 2 9 4 19 4 22 1 4 10 18 22 33 20 25 42 28 34 3z
m-385 -1 c0 -8 -10 -22 -22 -31 -21 -14 -23 -14 -26 0 -4 19 15 45 34 45 8 0
14 -6 14 -14z m350 -213 c-25 -68 -50 -95 -50 -54 0 17 44 81 56 81 2 0 -1
-12 -6 -27z m195 -5 c-4 -13 -14 -34 -22 -47 -12 -19 -17 -21 -24 -10 -5 8 -3
22 5 34 7 11 16 26 20 33 12 21 28 13 21 -10z"/>
</g>
</svg>
